<?xml version="1.0" encoding="UTF-8" standalone="no"?>
<svg
   xmlns:dc="http://purl.org/dc/elements/1.1/"
   xmlns:cc="http://creativecommons.org/ns#"
   xmlns:rdf="http://www.w3.org/1999/02/22-rdf-syntax-ns#"
   xmlns:svg="http://www.w3.org/2000/svg"
   xmlns="http://www.w3.org/2000/svg"
   xmlns:sodipodi="http://sodipodi.sourceforge.net/DTD/sodipodi-0.dtd"
   xmlns:inkscape="http://www.inkscape.org/namespaces/inkscape"
   version="1.1"
   id="svg1408"
   width="281"
   height="300"
   viewBox="0 0 281 300"
   sodipodi:docname="blank_family_crest.svg"
   inkscape:version="1.0.1 (3bc2e813f5, 2020-09-07)">
  <metadata
     id="metadata1414">
    <rdf:RDF>
      <cc:Work
         rdf:about="">
        <dc:format>image/svg+xml</dc:format>
        <dc:type
           rdf:resource="http://purl.org/dc/dcmitype/StillImage" />
        <dc:title />
      </cc:Work>
    </rdf:RDF>
  </metadata>
  <defs
     id="defs1412" />
  <sodipodi:namedview
     pagecolor="#ffffff"
     bordercolor="#666666"
     borderopacity="1"
     objecttolerance="10"
     gridtolerance="10"
     guidetolerance="10"
     inkscape:pageopacity="0"
     inkscape:pageshadow="2"
     inkscape:window-width="1920"
     inkscape:window-height="1001"
     id="namedview1410"
     showgrid="false"
     inkscape:zoom="1.3833333"
     inkscape:cx="72.653242"
     inkscape:cy="117.0113"
     inkscape:window-x="-9"
     inkscape:window-y="-9"
     inkscape:window-maximized="1"
     inkscape:current-layer="g1416"
     inkscape:document-rotation="0" />
  <g
     inkscape:groupmode="layer"
     inkscape:label="Image"
     id="g1416">
    <g
       id="g1993"
       transform="matrix(0.93235098,0,0,0.92945499,-45.063701,-2.7339399)">
      <g
         id="g1988"
         transform="translate(-13.737466,-1.8529605)">
        <path
           id="path1981"
           style="fill:#000000"
           transform="translate(63.000659,5.5588817)"
           d="m 38.755859,10.072266 c -0.698954,0.0073 -2.126039,2.640177 -3.707031,7.669922 -2.989788,9.511679 -2.925735,23.735303 0.179688,40.5 0.806374,4.353227 -4.558791,-8.055603 -6.167969,-14.265626 -0.847215,-3.269508 -1.542159,-10.060054 -1.542969,-15.089843 -0.0013,-7.941842 -0.179605,-8.903326 -1.361328,-7.316407 -4.115669,5.526881 -2.763767,21.636006 3.068359,36.544922 1.370949,3.504615 2.281789,6.583446 2.023438,6.841797 -1.119934,1.119934 -6.183843,-8.551065 -9.160156,-17.49414 -3.185465,-9.571527 -3.245471,-9.664122 -3.953125,-5.998047 -0.990455,5.131158 0.895633,12.496226 6.089843,23.777344 l 4.375,9.5 -3.53125,-3.96875 c -1.941605,-2.18275 -4.971609,-6.90657 -6.734375,-10.498047 l -3.205078,-6.529297 -0.30664,5.986328 c -0.275259,5.367828 0.139398,6.883976 4.005859,14.65625 2.371979,4.768098 3.859755,8.410449 3.306641,8.09375 -0.553113,-0.316698 -2.646244,-1.850497 -4.650391,-3.408203 -2.004147,-1.557705 -3.94599,-2.832031 -4.316406,-2.832031 -1.096053,0 0.475791,4.221474 3.072265,8.25 l 2.417969,3.75 h -2.515625 c -3.61916,0 -3.143776,1.454117 2.390625,7.310546 l 4.904297,5.189456 -2.927734,0.10742 c -1.611021,0.0592 -3.239504,0.41919 -3.619141,0.79883 -1.150453,1.15045 1.218577,3.99385 4.830078,5.79687 1.875007,0.93608 2.706987,1.7236 1.849609,1.75 -0.857378,0.0264 -2.432378,0.72779 -3.5,1.5586 -1.878799,1.46206 -1.820995,1.61747 1.808594,4.85547 4.075376,3.63567 4.559893,4.63281 2.25,4.63281 -3.040668,0 -1.364276,2.73749 3.21875,5.25781 4.674336,2.57054 4.692761,2.6015 2,3.27734 -1.49479,0.37517 -2.71875,1.06805 -2.71875,1.53907 0,1.02109 3.409694,2.94212 6.861328,3.86523 2.443235,0.65342 2.426244,0.69349 -1.291015,2.88672 -4.81095,2.83853 -3.633501,4.64328 3.664062,5.61133 l 5.199219,0.68945 -4.216797,1.88672 c -7.378963,3.30366 -4.06129,7.01781 4.978516,5.57226 l 4.101562,-0.65624 -3.648437,4.0371 c -3.68605,4.08002 -4.693338,7.03421 -2.398438,7.03321 0.6875,-4.3e-4 4.175,-1.37904 7.75,-3.0625 l 6.5,-3.06055 -4.634765,4.8125 c -7.62197,7.91344 -8.58099,12.28401 -1.94336,8.85156 4.27549,-2.21094 4.445892,-1.97715 1.613281,2.19141 -1.39482,2.05268 -2.535156,4.07768 -2.535156,4.5 0,1.29452 3.505044,0.85207 5.558594,-0.70117 3.22922,-2.44245 3.345894,-1.7596 0.583984,3.41992 -3.37881,6.33641 -2.15752,8.22634 3.03711,4.70117 l 3.53125,-2.39453 -1.875,4.93359 c -2.66882,7.02378 -0.876688,9.11434 3.638672,4.24219 l 2.378906,-2.56836 -1.066406,3.48047 c -0.58731,1.91361 -0.749082,4.30549 -0.357422,5.31641 0.64041,1.65291 0.994658,1.52383 3.517578,-1.28907 l 2.80664,-3.1289 -0.503906,17.6289 c -0.27731,9.69536 -0.95271,18.18946 -1.5,18.87696 -1.6082,2.0202 -4.75,1.52411 -4.75,-0.75 0,-1.11111 0.66667,-2 1.5,-2 0.825,0 1.5,-0.45 1.5,-1 0,-1.9405 -3.868989,-0.98787 -4.537109,1.11719 -0.46611,1.46858 -0.01894,2.77106 1.460937,4.25 2.04376,2.04247 2.257346,2.06349 5.048828,0.46289 6.055121,-3.47192 8.919101,0.5711 7.75,10.94335 -0.6055,5.37201 -3.668848,8.6664 -7.111328,7.64844 -4.70839,-1.39231 -6.189943,-7.20178 -2.496093,-9.78906 2.90656,-2.03583 5.194083,-1.00279 4.439453,2.00391 -0.3276,1.30527 -0.143837,2.36328 0.408203,2.36328 1.78904,0 2.413916,-5.05093 0.822265,-6.64258 -3.56462,-3.56462 -10.819228,2.68648 -9.21875,7.94336 2.312521,7.59563 10.868609,7.68694 14.017579,0.15039 1.9946,-4.77376 1.806675,-6.93407 -1.552735,-17.84766 -1.63248,-5.30337 -3.198619,-11.99626 -3.480468,-14.87304 l -0.511719,-5.23047 1.414062,6 c 0.77742,3.3 3.068247,11.175 5.091797,17.5 2.16802,6.77656 3.889916,14.44873 4.19336,18.67969 0.492879,6.87217 0.396841,7.29047 -2.267579,9.75976 -1.53106,1.41895 -2.508395,2.85684 -2.171875,3.19336 0.33653,0.33653 1.916016,-0.69336 3.509766,-2.28711 3.33007,-3.33008 4.766671,-9.95221 3.275391,-15.08984 -0.51785,-1.78404 -0.691016,-5.67134 -0.384766,-8.63867 l 0.558594,-5.39454 4.330078,3.05274 c 4.73072,3.33451 13.586693,4.84692 17.046873,2.91015 1.5795,-0.88409 3.01468,0.0592 9.36524,6.16211 4.125,3.96415 9.65336,9.06681 12.28515,11.33789 l 4.78516,4.12891 -2.78516,1.95898 c -1.53179,1.07727 -4.33765,2.7512 -6.23437,3.72071 l -3.44727,1.76367 4.44727,2.32617 c 5.91644,3.09408 6.75756,3.01084 10.95703,-1.08984 3.21491,-3.13927 3.7877,-3.36384 5.47656,-2.12891 1.81514,1.32726 1.7612,1.57712 -1.43164,6.55274 l -3.31836,5.17187 2.00781,2.20508 c 1.10425,1.21313 2.52989,3.21758 3.16797,4.45508 0.63808,1.2375 1.5447,2.25 2.01563,2.25 1.06358,0 3.68888,-6.4325 4.59375,-11.25586 0.50198,-2.67581 1.06924,-3.4551 2.19922,-3.02149 1.84837,0.70929 1.28936,7.40321 -1.30664,15.63868 -1.66213,5.27288 -1.65382,5.37921 0.95507,11.90039 1.44781,3.61896 2.63282,7.0645 2.63282,7.6582 0,0.59369 0.83892,1.08008 1.86523,1.08008 1.38179,0 2.45137,-1.62185 4.12109,-6.25 1.24016,-3.4375 2.67061,-6.76951 3.17774,-7.4043 0.58367,-0.73059 0.20313,-3.29954 -1.03516,-7 -2.99543,-8.95146 -3.66176,-14.92775 -1.74804,-15.66211 1.18384,-0.45428 1.83053,0.42597 2.6582,3.60938 1.71475,6.5953 3.29459,10.70703 4.11328,10.70703 0.79141,0 6.84766,-8.40196 6.84766,-9.5 0,-0.35181 -1.38707,-2.65559 -3.08203,-5.11914 -2.48305,-3.60898 -2.84722,-4.7606 -1.87696,-5.92969 1.79278,-2.16016 2.67295,-1.83565 6.80664,2.50976 l 3.76953,3.96094 4.85547,-2.45703 c 2.67059,-1.35202 5.01377,-2.61729 5.20703,-2.81055 0.19326,-0.19326 -2.42937,-2.06547 -5.82617,-4.1621 l -6.17578,-3.8125 2.41211,-1.89649 c 1.32596,-1.04247 6.72026,-6.16237 11.98828,-11.37891 9.08113,-8.99238 9.71961,-9.43187 12.31445,-8.44531 5.87173,2.23243 14.43679,0.42927 19.19727,-4.04297 l 2.11719,-1.99023 0.61718,5.89844 c 0.33905,3.24371 0.18806,7.39169 -0.33593,9.21875 -1.4413,5.0255 -0.0974,11.00224 3.22265,14.32226 1.58295,1.58295 3.15371,2.60411 3.49024,2.26758 0.33652,-0.33652 -0.58372,-1.72002 -2.04492,-3.07422 -3.94047,-3.65191 -3.59993,-9.94877 1.4375,-26.55859 2.25185,-7.425 4.72792,-16.2 5.50195,-19.5 l 1.4082,-6 -0.54883,5.34961 c -0.30212,2.94193 -1.60464,8.79193 -2.89453,13 -3.26572,10.65396 -3.71586,13.85819 -2.55273,18.17773 2.57605,9.56674 14.39258,8.98785 14.39258,-0.70508 0,-5.58872 -6.28258,-9.57823 -9.32032,-5.91797 -1.47188,1.7735 -0.34818,6.59571 1.53711,6.59571 1.1536,0 1.17757,-0.35624 0.14063,-2.0293 -1.03503,-1.67 -1.00187,-2.19167 0.1875,-2.93164 1.68243,-1.04673 4.89121,0.37274 5.71875,2.5293 0.89924,2.34338 -0.53738,6.29469 -2.71289,7.45898 -6.07185,3.24956 -10.48399,-5.11127 -8.34375,-15.8125 0.73085,-3.65425 3.66506,-4.73625 6.9707,-2.57031 2.96748,1.94437 6.23719,0.93943 7.01367,-2.1543 0.74701,-2.97633 -0.14626,-4.49023 -2.65039,-4.49023 -2.54567,0 -2.50171,1.62045 0.0625,2.29101 2.41961,0.63274 1.66489,3.70899 -0.91015,3.70899 -3.71071,0 -4.09375,-1.89452 -4.09375,-20.27735 v -17.875 l 2.58984,3.07618 c 3.57258,4.24577 4.80655,3.95252 4.02148,-0.95704 l -0.64648,-4.03515 2.56836,1.68359 c 4.04134,2.64799 5.08127,0.56179 2.56055,-5.13672 -1.15158,-2.60333 -2.09375,-4.88766 -2.09375,-5.07617 0,-0.18851 1.65422,0.78046 3.67578,2.15235 5.20233,3.53039 6.33364,1.8458 3.0332,-4.51563 -1.43765,-2.77102 -2.43598,-5.03906 -2.21875,-5.03906 0.21723,0 1.95717,0.92109 3.86524,2.04687 4.45339,2.62756 5.13129,1.40823 2.14257,-3.85351 -2.66906,-4.69896 -2.60142,-4.81469 1.58008,-2.65235 6.41736,3.31854 5.70293,-0.91034 -1.40234,-8.29101 -2.25028,-2.3375 -3.82696,-4.25 -3.50391,-4.25 0.32305,0 3.10921,1.15638 6.19336,2.56836 8.41838,3.85406 9.96767,2.02058 3.93555,-4.65625 l -3.69727,-4.09375 4.59961,0.68945 c 8.98449,1.34731 11.97291,-2.18357 4.63086,-5.4707 l -4.16601,-1.86524 4.62109,-0.6914 c 2.54128,-0.38109 5.41712,-1.27646 6.39062,-1.98828 1.61933,-1.18415 1.43875,-1.48913 -2.125,-3.5918 -3.82068,-2.25425 -3.84734,-2.3107 -1.41601,-2.96094 3.45163,-0.92311 6.86133,-2.84414 6.86133,-3.86523 0,-0.47102 -1.2375,-1.17311 -2.75,-1.5586 -2.72686,-0.695 -2.71003,-0.72069 2,-3.12695 5.13348,-2.62259 6.07782,-4.7983 2.5,-5.75977 -2.19568,-0.59005 -2.17757,-0.64981 0.75,-2.45507 1.65,-1.01746 3.65865,-2.64549 4.46289,-3.61914 1.29977,-1.57359 1.25047,-1.92498 -0.44141,-3.16211 -1.04686,-0.76549 -2.60551,-1.41125 -3.46289,-1.43555 -0.85738,-0.0243 0.15192,-0.9477 2.24219,-2.05078 6.01318,-3.17328 6.33441,-6.24024 0.65429,-6.24024 h -3.04492 l 4.04492,-4.121091 c 4.12549,-4.203556 5.38994,-8.54494 2.48829,-8.544921 -1.40894,-10e-7 -1.40894,-0.211116 0,-2.222657 0.85618,-1.222379 1.55664,-3.488183 1.55664,-5.035156 0,-3.024198 -0.37272,-2.964702 -5.80079,0.921875 -1.96104,1.404144 -1.7044,0.55462 1.73633,-5.757812 3.56285,-6.536485 4.03196,-8.169087 4.00196,-13.90625 l -0.0332,-6.5 -2.90625,5.5 c -1.59797,3.025 -4.50476,7.299999 -6.45898,9.5 l -3.55274,4 3.87696,-8.175782 c 5.12303,-10.807802 7.59591,-20.058163 6.67578,-24.96289 -0.79294,-4.22671 -1.7989,-3.351248 -3.0293,2.638672 -0.95716,4.659697 -7.75203,19.163354 -9.74414,20.796874 -1.08778,0.891967 -0.52205,-1.516214 1.81445,-7.724609 5.53674,-14.711879 6.82507,-30.450488 2.92383,-35.710937 -1.20952,-1.63091 -1.37792,-0.745061 -1.35742,7.138672 0.0128,4.949998 -0.54063,11.249981 -1.22851,14 -1.35828,5.429923 -7.33332,19.593088 -6.53907,15.5 3.11327,-16.04392 3.18812,-30.997347 0.20117,-40.5 -3.05147,-9.707916 -4.91447,-10.258925 -3.38086,-1 1.14892,6.936374 0.35755,24.533854 -1.45703,32.404296 -1.19355,5.176951 -1.24614,4.820593 -1.24414,-8.5 10e-4,-10.506304 -0.43188,-15.309258 -1.77539,-19.654296 -0.97787,-3.162501 -2.11523,-5.75 -2.52734,-5.75 -0.41212,0 -0.39958,4.612498 0.0273,10.25 1.32998,17.531317 -2.15469,32.291378 -11.51172,48.75 -4.03366,7.095016 -4.54881,7.592417 -9.52148,9.193359 -7.11166,2.289583 -12.2084,6.560835 -17.72266,14.855469 -2.54156,3.823044 -4.84619,6.951174 -5.12109,6.951174 -0.27494,0 -0.35478,-1.68149 -0.17773,-3.73633 0.318,-3.69123 0.23521,-3.784265 -6.9043,-7.750001 -3.97445,-2.207664 -7.23374,-4.351191 -7.24414,-4.763671 -0.034,-1.343008 6.54557,-0.789047 8.53906,0.71875 3.1208,2.360454 3.99669,1.750519 1.42188,-0.990235 -2.74479,-2.921689 -3.41081,-5.478519 -1.42579,-5.478515 1.94691,-10e-7 8.43683,-6.720093 8.48243,-8.783204 0.0209,-0.944167 1.80355,-2.937893 3.96093,-4.429687 6.7565,-4.671999 10.11511,-14.627747 6.52539,-19.345703 -1.34971,-1.773917 -1.42605,-1.538702 -0.875,2.736328 1.02554,7.956158 -3.17401,12.446056 -25.89843,27.685547 -10.9847,7.366579 -9.64736,4.789454 1.63671,-3.154297 7.52731,-5.299056 9.82996,-7.525936 11.63086,-11.246094 1.97427,-4.0783 2.10679,-5.106354 1.08594,-8.513672 -1.25903,-4.202267 -4.29824,-6.949224 -7.68945,-6.949218 -3.13803,0 -7.41406,4.713144 -7.41406,8.171874 0,6.75094 6.43033,10.567919 8.85156,5.253907 1.16245,-2.551297 0.81743,-4.425787 -0.81641,-4.425781 -0.46605,0 -0.61188,0.899999 -0.32422,2 0.38867,1.486254 0.0298,2 -1.39453,2 -4.40318,0 -5.81821,-5.498197 -2.3164,-9 4.07846,-4.078463 10,-0.910815 10,5.349609 0,3.346234 -3.48603,9.181262 -7.73633,12.949219 -2.45366,2.175212 -7.26367,1.391713 -7.26367,-1.183594 0,-2.741182 -2.95582,-6.115238 -5.35743,-6.115234 -4.16069,-10e-7 -6.23151,4.436756 -3.23242,6.925781 1.0691,0.887274 1.58552,0.8909 2.12891,0.01172 0.39443,-0.6382 0.14397,-1.514266 -0.55664,-1.947266 -1.37743,-0.851297 -0.65859,-3.990238 0.91406,-3.990234 1.58581,0 4.10352,3.019666 4.10352,4.921874 0,1.87052 -4.52044,8.634432 -7.29883,10.921876 -1.38163,1.137499 -2.64137,1.007067 -8.23242,-0.853516 -5.34138,-1.777498 -6.47107,-2.512004 -5.90821,-3.84375 0.20915,-0.494845 0.44461,-1.240552 0.66993,-2.013672 -0.42098,0.04138 -0.85641,0.07031 -1.32032,0.07031 h -0.13086 c 0.0413,0.208906 0.0557,0.430514 0.01,0.675782 -0.0884,0.464417 -0.43864,0.873614 -0.90625,1.208984 0.46873,0.282679 0.98355,0.614581 1.58008,1.03711 0.68232,0.483304 -1.90974,0.67423 -2.50586,0.08789 -0.1587,-0.156097 -0.29473,-0.315969 -0.43946,-0.474609 -1.04921,0.299182 -2.18695,0.258361 -2.77343,-0.328125 -0.2379,-0.237902 -0.2531,-0.782045 -0.10352,-1.396485 -0.001,-0.0019 -0.002,-0.004 -0.004,-0.0059 -0.2232,-0.01923 -0.29686,-0.01973 -0.60937,-0.08203 -0.0665,-0.01325 -0.13177,-0.0312 -0.19727,-0.04883 -0.0756,-0.02037 -0.12636,-0.02674 -0.16796,-0.08984 -0.002,-0.01323 0.006,-0.04016 -0.008,-0.03906 -0.0196,0.0016 -0.0214,0.04087 -0.041,0.04297 -0.0321,0.0035 -0.0603,-0.0219 -0.0918,-0.0293 -0.006,-0.0015 -0.0132,-5.39e-4 -0.0195,-0.002 -0.43493,0.687797 -1.36185,1.153315 -2.2207,1.072266 -7.8985,-0.745354 -9.06514,-0.954029 -9.23243,-2.382813 -0.008,-0.0031 -0.0152,-0.0062 -0.0234,-0.0078 -0.0357,-0.007 -0.0734,-0.01053 -0.10938,-0.01563 -0.21736,-7e-4 -0.43521,-0.0031 -0.65234,0.002 -0.0775,-0.02299 -0.15211,-0.03115 -0.22461,0.01758 -0.0403,0.01173 -0.08,0.02696 -0.12109,0.03516 -0.0312,0.0062 -0.064,0.005 -0.0957,0.0078 -0.0583,0.0052 -0.11748,0.01208 -0.17578,0.01758 -0.12953,0.01233 -0.25795,0.03281 -0.38672,0.05078 -1.01276,0.820181 -2.79621,1.322007 -3.58203,0.757813 -0.48337,0.05749 -0.96075,0.0847 -1.49219,0.0625 -1.08175,0.0049 -2.16578,0.03825 -3.24804,0.02734 -1.50146,0.368483 -3.32991,0.515042 -4.90625,0.400391 -0.30637,0.04208 -0.61239,0.08659 -0.91993,0.121094 -0.24156,0.0271 -0.48739,0 -0.73046,0 h -1.69922 -2.02539 -0.95118 c -0.97657,0.593063 -2.61842,1.098506 -5.20507,1.626953 -3.3,0.674181 -9.51195,2.405171 -13.80469,3.847656 l -7.80469,2.623047 -2.69531,-3.167969 c -4.06826,-4.781026 -6.18245,-8.176995 -6.18945,-9.949218 -0.009,-2.076444 3.5599,-5.293095 4.93164,-4.445313 1.42532,0.880897 1.35158,3.276686 -0.11524,3.765625 -0.65836,0.219455 -0.83864,0.937542 -0.41015,1.630859 0.58801,0.951423 1.09473,0.967174 2.17773,0.06836 2.99909,-2.489024 0.92826,-6.925783 -3.23242,-6.925781 -2.40162,-10e-7 -5.35742,3.374052 -5.35742,6.115234 0,0.970793 -1.106035,1.945892 -2.644535,2.332031 -2.13131,0.534925 -3.314038,0.02275 -6.085937,-2.640625 -6.41635,-6.165141 -8.137032,-12.939143 -4.269532,-16.80664 3.826,-3.825995 10,-1.384092 10,3.955078 0,3.119097 -1.647636,5.044904 -4.316406,5.044922 -1.42432,0 -1.783191,-0.513746 -1.394531,-2 0.52934,-2.024184 -0.690298,-2.776214 -1.742188,-1.074219 -0.97332,1.574865 1.674059,6.074217 3.574219,6.074219 2.8489,0 5.878906,-3.987044 5.878906,-7.736329 0,-3.765879 -3.924437,-8.263674 -7.210937,-8.263671 -4.46534,0 -8.789063,5.321997 -8.789063,10.818359 0,3.838239 5.74691,10.350831 14.75586,16.722656 5.016394,3.547977 9.436864,6.960384 9.822264,7.583985 1.09196,1.766823 -0.27509,0.952714 -13.374999,-7.978516 -19.06298,-12.99702 -23.322538,-18.168951 -21.736328,-26.396484 0.59112,-3.066137 0.539678,-3.139907 -0.919922,-1.308594 -3.73944,4.691782 0.410358,16.058022 7.361328,20.164062 1.70091,1.004748 3.091797,2.61309 3.091797,3.576172 0,2.072017 6.460913,8.818341 8.445313,8.81836 1.7862,0 1.412526,2.396 -0.746094,4.78125 -2.39627,2.647844 -2.10991,3.619862 0.523437,1.77539 2.290151,-1.604084 6.397557,-2.022062 9.218748,-0.939453 1.15965,0.445002 -0.275446,1.769426 -5.167966,4.769531 -5.95016,3.648646 -6.812033,4.561624 -7.095703,7.511714 L 87.482422,104.5 83.921875,99.121094 c -1.95831,-2.95809 -4.722481,-6.631277 -6.144531,-8.16211 -3.20116,-3.446055 -10.353055,-7.716796 -12.921875,-7.716796 -2.67628,0 -4.553645,-2.367377 -9.615235,-12.123047 -8.55793,-16.494453 -11.456128,-30.341422 -9.861328,-47.126953 0.45722,-4.8125 0.48808,-8.75 0.06836,-8.75 -0.41971,0 -1.563156,2.587499 -2.541016,5.75 -1.33664,4.322814 -1.777354,9.141245 -1.777344,19.414062 10e-6,13.040765 -0.05721,13.428705 -1.255859,8.5 -1.93451,-7.954447 -2.700595,-26.306674 -1.359375,-32.560547 0.909825,-4.242379 0.858912,-6.279899 0.242187,-6.273437 z m 3.238282,45.515625 c 0.09094,0.01377 0.198648,0.167647 0.318359,0.466797 0.28882,0.721873 0.25225,1.583723 -0.08008,1.916015 -0.33229,0.332291 -0.568791,-0.258334 -0.525391,-1.3125 0.02999,-0.728089 0.135534,-1.093263 0.28711,-1.070312 z m 221.999999,0 c 0.0909,0.01377 0.19865,0.167647 0.31836,0.466797 0.28891,0.721873 0.25259,1.583723 -0.0801,1.916015 -0.3323,0.332291 -0.56879,-0.258334 -0.52539,-1.3125 0.03,-0.728089 0.13554,-1.093263 0.28711,-1.070312 z M 158.57227,75.4375 c -0.14143,0.0135 -0.27483,0.06847 -0.40821,0.121094 -0.0143,0.01475 -0.0267,0.03017 -0.041,0.04492 0.0169,-0.0018 0.0353,-0.0041 0.0527,-0.0059 0.14675,-0.04737 0.53965,-0.173823 0.39649,-0.160156 z m 1.07617,0.05664 c -0.0221,0.0041 -0.0589,0.01017 -0.0937,0.01563 0.0274,-0.0029 0.0513,0.0075 0.0762,0.01367 0.006,-3.22e-4 0.0121,2.37e-4 0.0195,0 -5.8e-4,-0.0095 -8e-4,-0.01971 -0.002,-0.0293 z m 11.72265,0.949218 c -0.0306,0.08616 -0.0517,0.161607 -0.0879,0.25586 -0.0205,0.05345 -0.0519,0.102791 -0.0781,0.154297 0.0306,0.0072 0.0626,0.01386 0.0898,0.0293 0.0531,0.03009 0.0929,0.07831 0.14649,0.107422 0.01,0.0052 -0.005,-0.02262 -0.008,-0.0332 -0.004,-0.0043 -0.005,-0.0085 -0.01,-0.01172 -0.008,-0.0052 -0.0344,-0.01402 -0.0254,-0.01172 0.21581,0.05468 -0.0357,0.01373 0.28515,0.07813 0.23019,0.04619 0.33202,0.04753 0.45118,0.05859 -0.0642,-0.08657 -0.12997,-0.171071 -0.19141,-0.261718 -0.0335,-0.02553 -0.0254,-0.01822 -0.0606,-0.04492 -0.0672,-0.05102 -0.15952,-0.176039 -0.24219,-0.289063 -0.0423,-0.01033 -0.0846,-0.02089 -0.12695,-0.03125 -0.028,-4.45e-4 -0.056,-4.5e-5 -0.084,0 0.0217,0.02239 0.0392,0.04895 0.0605,0.07031 -0.0168,-0.01486 -0.005,-0.0054 -0.0234,-0.02148 -0.0187,-0.01647 -0.0378,-0.03245 -0.0566,-0.04883 -0.013,3.7e-5 -0.026,-4.9e-5 -0.0391,0 z m 0.57227,0.365235 c 0.0928,0.07078 0.0852,0.06469 0.16602,0.126953 -0.0699,-0.120682 -0.10569,-0.249662 -0.14063,-0.378906 -0.0913,-0.02224 -0.1822,-0.04612 -0.27344,-0.06836 0.0843,0.104803 0.17106,0.20672 0.24805,0.320313 z m 0.28125,-0.361328 c 10e-4,0.0032 0.003,0.0047 0.004,0.0078 0.0132,0.0032 0.0259,0.0085 0.0391,0.01172 -0.004,-0.0069 -0.006,-0.01241 -0.01,-0.01953 -0.0111,-8.7e-5 -0.0221,8.6e-5 -0.0332,0 z m 0.0644,0.1875 c 0.0292,0.08505 0.0587,0.173683 0.0898,0.263672 0.015,-0.04416 0.0322,-0.08842 0.0488,-0.132813 -0.0211,-0.03961 -0.0396,-0.07576 -0.0586,-0.111328 -0.0266,-0.0066 -0.0534,-0.01296 -0.0801,-0.01953 z m 3.74414,1.998046 c -0.0439,0.0227 -0.0897,0.04108 -0.13476,0.0625 0.56147,0.04673 0.92633,0.07302 0.13476,-0.0625 z m -23.86523,2.609376 c 8.60644,0 22.49657,2.264295 31.46094,5.128906 8.03442,2.567444 28.99647,12.659736 29.54101,14.222657 0.22,0.63143 0.0255,5.19844 -0.43164,10.14844 l -0.83008,9 -0.14062,-9.20117 -0.13867,-9.20118 -6.62696,-3.705075 C 195.89853,92.543881 182.04635,87.47627 170.66011,85.072265 148.15893,80.321532 118.5246,85.9374 97.378856,98.958983 l -3.75,2.308597 -0.0625,8.73828 c -0.04885,6.73327 -0.288515,8.17511 -1.041015,6.29102 -0.53707,-1.34472 -0.844977,-5.59319 -0.685547,-9.44141 l 0.289062,-6.996096 5.367188,-3.21875 C 111.66211,88.145007 136.17011,81.242177 152.16797,81.242188 Z M 61.634716,84.51953 c 6.77698,0.314237 14.127104,5.355271 20.193359,14.222657 9.16588,13.398283 13.522445,29.234423 12.515625,45.500003 -0.80078,12.93692 -3.65321,20.08533 -9.6875,24.28125 -3.78951,2.63501 -10.569276,2.26666 -13.572266,-0.73633 -2.78427,-2.78427 -3.187151,-6.67027 -0.925781,-8.93164 2.88265,-2.88265 7.647256,0.25193 6.802735,4.47461 -0.500541,2.50268 -0.276684,2.91211 1.591796,2.91211 8.18007,0 13.295433,-9.02547 13.882813,-24.5 0.3213,-8.46474 0.04172,-10.89543 -1.816406,-15.83203 -2.92631,-7.77448 -7.156793,-12.45249 -12.570313,-13.90039 -2.36547,-0.63266 -4.075591,-1.51433 -3.800781,-1.95899 0.85139,-1.37756 6.819363,-0.89013 9.158203,0.74805 2.74184,1.92047 2.766514,1.42998 0.179688,-3.64063 -4.393541,-8.611981 -13.393381,-15.834569 -19.806641,-15.894529 -3.51648,-0.03288 -9.225635,3.008229 -10.109375,5.384766 -1.21394,3.264549 -0.07762,5.091823 1.640625,2.638671 0.78783,-1.12479 2.273204,-2.044921 3.302734,-2.044921 4.59527,0 6.78118,7.093473 3.1875,10.345703 -2.13125,1.92876 -6.992967,2.12548 -9.216797,0.37305 -7.5951,-5.9851 -6.222376,-17.991691 2.533204,-22.146488 2.062711,-0.978821 4.258584,-1.399667 6.517578,-1.294922 z M 244.4043,84.646484 c 4.50678,-0.03624 8.46706,1.823006 10.9375,5.494141 6.66664,9.906795 -2.47221,23.861405 -11.49024,17.544925 -2.74405,-1.922 -2.94888,-6.47545 -0.39453,-8.787112 2.49281,-2.255961 4.76238,-2.077552 6.58008,0.517578 1.2966,1.851154 1.61342,1.936694 2.13477,0.578125 1.39814,-3.6435 -4.45343,-8.751959 -10.0254,-8.751953 -6.4944,-10e-7 -14.83761,6.143434 -19.58593,14.421872 -3.50055,6.10304 -3.65158,7.19584 -0.70899,5.13477 2.42045,-1.69535 6.49947,-2.01794 8.60742,-0.68164 0.93483,0.59262 0.36522,1.03594 -1.91601,1.49219 -5.073,1.01457 -9.89433,5.36047 -12.78516,11.52539 -2.36891,5.05189 -2.62656,6.74587 -2.60156,17.10742 0.0248,10.28611 0.30578,12.10023 2.66211,17.17969 2.77858,5.98965 6.94275,9.23294 11.08008,8.63085 1.70274,-0.24779 2.14579,-1.01902 2.18359,-3.81054 0.045,-3.3243 0.22258,-3.5 3.54688,-3.5 3.214,0 3.52588,0.26524 3.8125,3.23437 0.23065,2.38945 -0.34526,3.89018 -2.20508,5.75 -2.47042,2.47042 -7.5991,3.27103 -11.60742,1.8125 -12.05289,-4.38574 -15.73088,-34.11276 -6.97461,-56.37304 3.47388,-8.83133 12.6287,-21.748844 17.6875,-24.957036 3.72143,-2.360063 7.55722,-3.534314 11.0625,-3.5625 z m -91.72266,4.207032 c 8.32184,0.09506 16.76762,1.042968 23.29883,2.822265 9.3604,2.550055 18.0635,5.967539 26.37891,10.355469 l 4.22851,2.23047 -0.0801,40.74023 c -0.0575,29.0867 -0.41017,41.1438 -1.23047,42.15235 -0.87316,1.07355 -0.84839,1.51426 0.10157,1.83398 0.80941,0.27243 1.25,2.48147 1.25,6.26563 0,4.73159 -0.66441,7.11992 -3.49414,12.54882 -6.45928,12.39224 -23.11965,30.21819 -40.4375,43.26758 -4.50485,3.39451 -9.00084,6.17188 -9.99024,6.17188 -3.59336,0 -18.60543,-11.79432 -31.97265,-25.11914 -9.04668,-9.01795 -17.18337,-19.76848 -20.21485,-26.71289 -2.20264,-5.04577 -2.620154,-15.75563 -0.640624,-16.42188 0.997474,-0.3357 0.994764,-0.72937 -0.01172,-1.94922 -0.979304,-1.18693 -1.202903,-10.66837 -1,-42.4082 l 0.261718,-40.88086 5.000006,-2.73242 c 6.49281,-3.5488 16.00708,-7.160053 25.99414,-9.865236 6.03874,-1.635708 14.23675,-2.393891 22.55859,-2.298828 z m -89.703124,4.523437 c 2.11688,-0.07349 5.398568,0.601054 7.292968,1.5 2.96839,1.4086 8.452109,7.072357 10.761719,11.115237 1.48281,2.59561 -0.295129,1.08815 -3.886719,-3.29492 -4.79783,-5.85519 -7.77691,-7.748727 -13.43164,-8.542973 l -4.585938,-0.644531 z m 178.742184,0 c 0.34871,-0.0078 0.70115,-0.0057 1.0586,0.0059 l 4.34961,0.140626 -5,0.648437 c -2.75,0.355936 -5.96213,1.180634 -7.13868,1.833984 -1.17655,0.65336 -4.25467,3.562121 -6.83984,6.46289 -5.19848,5.83312 -5.06832,4.62943 0.20313,-1.88281 3.87148,-4.782807 8.13655,-7.091769 13.36718,-7.208986 z M 70.244141,101.24219 c 2.8742,0 4.13393,2.39429 2.375,4.51367 -1.65284,1.99155 -3.718783,1.87804 -4.820313,-0.26367 -1.31669,-2.56008 -0.343827,-4.25 2.445313,-4.25 z m 164.769529,0 c 2.78914,0 3.762,1.68992 2.44531,4.25 -1.10152,2.14171 -3.16747,2.25522 -4.82031,0.26367 -1.75893,-2.11938 -0.4992,-4.51367 2.375,-4.51367 z M 63.878906,111.31055 c 0.6875,0.0372 0.246885,0.55114 -0.978515,1.14257 -4.46948,2.15714 -4.165478,8.93165 0.476562,10.62696 1.51362,0.55279 2.06473,1.04058 1.224609,1.08398 -2.915199,0.15067 -5.972656,-2.91008 -5.972656,-5.97851 0,-3.02654 3.03079,-6.99516 5.25,-6.875 z m 177.498044,0.17968 c 0.61349,0.0248 1.67659,0.45649 2.72071,1.14063 1.87562,1.22896 2.53125,2.52604 2.53125,5.01172 0,2.02363 -0.6943,3.88084 -1.75,4.67969 -1.48877,1.12651 -1.56341,1.11383 -0.5,-0.0781 2.64238,-2.96321 0.53938,-10.00195 -2.98829,-10.00195 -0.60238,0 -0.80849,-0.28527 -0.45898,-0.63477 0.0874,-0.0874 0.24082,-0.12545 0.44531,-0.11719 z m -162.042966,3.1211 c 0.287623,0.029 0.553012,0.23944 0.794922,0.63086 0.39916,0.64585 0.276563,1.62383 -0.273437,2.17383 -0.66667,0.66667 -1.242733,0.60901 -1.726563,-0.17383 -0.39915,-0.64585 -0.276562,-1.62383 0.273438,-2.17383 0.33333,-0.33334 0.644018,-0.48608 0.93164,-0.45703 z m 146.999996,0 c 0.28763,0.029 0.55302,0.23944 0.79493,0.63086 0.39915,0.64585 0.27656,1.62383 -0.27344,2.17383 -0.66667,0.66667 -1.24274,0.60901 -1.72656,-0.17383 -0.39915,-0.64585 -0.27657,-1.62383 0.27343,-2.17383 0.33334,-0.33334 0.64402,-0.48608 0.93164,-0.45703 z m -142.310542,2.61328 c 0.03951,-0.0131 0.09888,0.0133 0.18164,0.082 2.02818,1.68324 5.609421,11.03639 6.369141,16.63477 0.39572,2.91582 0.555667,5.30078 0.355469,5.30078 -0.580771,0 -1.097465,-2.17324 -1.640626,-6.88672 -0.27799,-2.41238 -1.806784,-7.00948 -3.396484,-10.2168 -1.390979,-2.8064 -2.145713,-4.82211 -1.86914,-4.91406 z m 137.320312,0.20898 c 0.24815,-0.0122 -0.48828,1.79297 -1.91211,4.60743 -2.7009,5.33879 -3.29465,7.85199 -3.90039,16.5 l -0.71484,10.20117 0.21289,-10 c 0.21538,-10.14738 1.83794,-15.84239 5.98242,-21 0.16573,-0.20625 0.27477,-0.30577 0.33203,-0.3086 z m -138.214844,3.8086 c 0.825,0 1.5,0.675 1.5,1.5 0,1.56157 -1.183354,1.98462 -2.333984,0.83398 -1.15063,-1.15063 -0.727586,-2.33398 0.833984,-2.33398 z m 139.000004,0 c 0.825,0 1.5,0.675 1.5,1.5 0,1.56157 -1.18336,1.98462 -2.33399,0.83398 -1.15064,-1.15063 -0.72758,-2.33398 0.83399,-2.33398 z m -143.308598,0.13086 c 0.171836,0.0503 0.489572,0.43511 0.931641,1.19531 0.58412,1.00375 0.849267,2.0355 0.591797,2.29297 -0.25746,0.25747 -0.748847,-0.26451 -1.091797,-1.15821 -0.603112,-1.57168 -0.718032,-2.41388 -0.431641,-2.33007 z m 147.587888,0.0684 c 0.096,-0.002 0.14609,0.0945 0.13477,0.30078 -0.10413,1.89422 -1.77013,5.08385 -1.82813,3.5 -0.0302,-0.825 0.38091,-2.175 0.91407,-3 0.33322,-0.51563 0.61927,-0.79663 0.77929,-0.80078 z m 15.13672,1.92382 c 0.3474,0.0143 0.64635,0.1073 0.8125,0.27344 0.33229,0.3323 -0.25834,0.56879 -1.3125,0.52539 -1.16495,-0.048 -1.40124,-0.28625 -0.60351,-0.60547 0.36093,-0.14445 0.75612,-0.20766 1.10351,-0.19336 z M 81.486328,127.9102 c 0.05594,-0.0306 0.122556,0.0742 0.199219,0.33203 1.14741,3.85862 1.064929,18.31603 -0.150391,26.30859 -0.60144,3.95535 -1.566974,7.64141 -2.146484,8.19141 -0.7289,0.69178 -0.839652,0.39623 -0.357422,-0.96094 1.57687,-4.43784 2.820489,-18.54252 2.380859,-27.00195 -0.209893,-4.03873 -0.168202,-6.73637 0.07422,-6.86914 z m 4.179688,0.57031 c 1.056342,0.0423 1.974576,0.93458 1.419922,1.83203 -0.31643,0.51199 -0.971952,0.92969 -1.457032,0.92969 -1.40048,0 -2.133985,-1.79906 -1.015625,-2.49024 0.332995,-0.2058 0.700621,-0.28557 1.052735,-0.27148 z m 134.000004,0 c 1.05634,0.0423 1.97458,0.93458 1.41992,1.83203 -0.31643,0.51199 -0.97195,0.92969 -1.45703,0.92969 -1.40048,0 -2.13399,-1.79906 -1.01563,-2.49024 0.333,-0.2058 0.70062,-0.28557 1.05274,-0.27148 z m 4.0957,0.44922 c 0.24393,0.19154 0.2991,3.06719 0.10547,7.3125 -0.27074,5.93592 0.12858,12.68891 1.0664,18 1.40197,7.93968 1.5683,11.50653 0.3418,7.32617 -2.43865,-8.31179 -3.40461,-26.57118 -1.71094,-32.32617 0.0759,-0.25781 0.14098,-0.3567 0.19727,-0.3125 z m -5.27344,7.46679 c 0.0698,9.8e-4 0.14095,0.0125 0.21484,0.0371 0.59129,0.19708 1.07618,0.7861 1.07618,1.3086 0,0.5225 -0.48489,1.11151 -1.07618,1.30859 -0.59119,0.19709 -1.07421,-0.39192 -1.07421,-1.30859 0,-0.80209 0.37069,-1.35252 0.85937,-1.34571 z m -131.822264,0.084 c 1.056342,0.0423 1.974576,0.93458 1.419922,1.83203 -0.31643,0.51199 -0.971952,0.92969 -1.457032,0.92969 -1.40048,0 -2.133985,-1.79906 -1.015625,-2.49024 0.332995,-0.2058 0.700621,-0.28557 1.052735,-0.27148 z m 132.462894,6.76172 c 0.825,0 1.5,0.675 1.5,1.5 0,0.825 -0.675,1.5 -1.5,1.5 -0.825,0 -1.5,-0.675 -1.5,-1.5 0,-0.825 0.675,-1.5 1.5,-1.5 z m -132.449222,0.18164 c 0.539827,-0.0317 0.949218,0.47239 0.949218,1.23437 0,0.87083 -0.713154,1.58399 -1.583984,1.58399 -1.76593,0 -1.457736,-2.15342 0.396484,-2.77149 0.08164,-0.0272 0.161158,-0.0423 0.238282,-0.0469 z m 3.486328,0.0508 c 0.0518,0.0404 0.108378,0.2082 0.167968,0.51758 0.23835,1.2375 0.23835,3.2625 0,4.5 -0.23836,1.2375 -0.433593,0.225 -0.433593,-2.25 0,-1.85625 0.11022,-2.88887 0.265625,-2.76758 z m -4.478516,6.76758 c 0.51754,0 0.941406,0.675 0.941406,1.5 0,1.54641 -1.18046,1.98751 -2.30664,0.86133 -0.79894,-0.79893 0.104254,-2.36133 1.365234,-2.36133 z m 134.44141,0 c 0.825,0 1.5,0.675 1.5,1.5 0,0.825 -0.675,1.5 -1.5,1.5 -0.825,0 -1.5,-0.675 -1.5,-1.5 0,-0.825 0.675,-1.5 1.5,-1.5 z m -136.000004,7 c 0.825,0 1.5,0.675 1.5,1.5 0,0.825 -0.675,1.5 -1.5,1.5 -0.825,0 -1.5,-0.675 -1.5,-1.5 0,-0.825 0.675,-1.5 1.5,-1.5 z m 137.550784,0.18164 c 0.53982,-0.0317 0.94922,0.47239 0.94922,1.23437 0,0.87083 -0.71316,1.58399 -1.58399,1.58399 -1.76593,0 -1.45773,-2.15345 0.39649,-2.77149 0.0816,-0.0272 0.16116,-0.0423 0.23828,-0.0469 z m -128.583987,2.28125 c 0.06029,0.0225 0.12596,0.11523 0.195313,0.28711 0.27742,0.6875 0.27742,1.8125 0,2.5 -0.27741,0.6875 -0.503907,0.125 -0.503907,-1.25 0,-1.03125 0.127726,-1.60449 0.308594,-1.53711 z m 118.999997,0 c 0.0603,0.0225 0.12596,0.11523 0.19532,0.28711 0.27741,0.6875 0.27741,1.8125 0,2.5 -0.27741,0.6875 -0.50391,0.125 -0.50391,-1.25 0,-1.03125 0.12772,-1.60449 0.30859,-1.53711 z m 1.53321,4.38476 2.54492,3.02344 c 1.39951,1.66322 4.30384,3.80087 6.45508,4.75 3.3662,1.48516 4.06754,2.36367 5.02734,6.30274 0.61338,2.51735 1.36068,9.81268 1.66211,16.21289 0.47903,10.17091 0.27878,12.43832 -1.5957,18 -2.72531,8.08616 -7.96114,15.24529 -13.04688,17.83984 -3.70966,1.89253 -7.04687,2.62867 -7.04687,1.55469 0,-0.2581 2.48534,-2.06046 5.52343,-4.00391 6.56749,-4.20117 10.58782,-10.06543 12.99414,-18.95508 1.9782,-7.30807 1.7527,-20.16817 -0.37695,-21.48437 -0.70819,-0.43768 -1.72924,-2.77389 -2.26953,-5.19141 -1.28582,-5.75342 -3.57278,-9.22431 -5.57227,-8.45703 -2.14132,0.8217 -4.22907,-2.24291 -4.26757,-6.26562 z m -122.000004,0.084 -0.01563,3.2832 c -0.01718,3.6848 -1.280202,6.21836 -3.201172,6.41992 -0.7058,0.0741 -1.795083,0.1866 -2.419921,0.25 -1.647492,0.16728 -4.363282,6.4034 -4.363282,10.01758 0,2.04498 -0.495118,3.09766 -1.455078,3.09766 -2.03372,0 -2.93384,5.82399 -2.21875,14.35351 0.80249,9.5721 6.029454,20.38109 11.777344,24.35742 2.2179,1.53434 5.014504,3.56166 6.214844,4.50586 2.10767,1.65796 2.11312,1.7176 0.18164,1.7461 -5.15018,0.076 -12.641804,-6.93096 -16.802734,-15.71485 -3.04307,-6.42407 -3.197266,-7.32466 -3.197266,-18.74804 0,-6.6 0.620329,-14.79654 1.378906,-18.21485 1.26158,-5.68495 1.663662,-6.30807 4.701172,-7.31054 1.82643,-0.60277 4.691651,-2.65976 6.369141,-4.57032 z m 118.228514,4.56836 1.41992,3.99804 c 1.85841,5.23673 3.90769,7.34623 5.54493,5.70899 0.66393,-0.66393 1.54483,-1.20703 1.95898,-1.20703 1.03777,0 2.8348,6.79813 2.8418,10.75 0.004,2.21974 0.48136,3.25 1.50586,3.25 1.19933,0 1.5,1.49623 1.5,7.46289 0,9.60568 -2.65937,16.82916 -8.64649,23.48828 -2.49641,2.7766 -5.03565,5.04883 -5.64258,5.04883 -0.60692,0 0.31033,-1.4625 2.03711,-3.25 10.03874,-10.39177 9.72244,-29.99843 -0.55664,-34.52735 -3.23636,-1.42593 -3.41421,-1.6718 -1.4414,-1.99414 2.21703,-0.36224 3.06985,-2.60232 1.38671,-3.64258 -1.57561,-0.9738 -3.39245,-9.43382 -2.64062,-12.29492 z m -114.708982,1.20312 c 0.181539,-0.0484 0.379741,0.11073 0.605468,0.4668 1.4494,2.28634 0.95741,7.24556 -1.125,11.33008 -2.58866,5.07751 -2.53363,5.48591 0.75,5.57031 2.5042,0.0643 2.367341,0.24241 -1.537109,1.97656 -5.49509,2.44063 -8.169922,7.82446 -8.169922,16.45313 0,7.01219 2.523104,13.39934 7.208984,18.25 1.72677,1.7875 2.64403,3.25 2.03711,3.25 -2.20091,0 -10.230145,-10.22916 -12.234375,-15.58594 -2.58342,-6.90482 -2.950808,-20.41406 -0.554688,-20.41406 1.0245,0 1.50186,-1.03026 1.50586,-3.25 0.0068,-3.95187 1.804038,-10.75 2.841796,-10.75 0.414142,0 1.324388,0.5625 2.023438,1.25 1.01981,1.00297 1.663669,0.7688 3.261719,-1.1875 1.0954,-1.34097 2.252132,-3.73919 2.570312,-5.33008 0.258006,-1.29004 0.51383,-1.94865 0.816407,-2.0293 z m -18.964844,3.5625 c 0.04027,0.0109 0.07976,0.0368 0.11914,0.0762 0.275,0.275 -0.07082,3.12397 -0.769531,6.33008 -0.69871,3.20612 -1.261953,11.00313 -1.251953,17.32813 0.01456,9.49936 0.407179,12.50054 2.255859,17.25195 3.0756,7.9048 8.880686,14.95854 14.478516,17.58984 5.809,2.73059 9.203715,2.72083 13.613285,-0.041 l 3.5,-2.19336 -2.97266,-0.55859 c -3.92213,-0.7376 -6.28961,-4.95305 -3.81836,-6.79883 2.57182,-1.92088 6.01064,-1.48833 7.73438,0.97265 2.14573,3.06345 1.95182,5.20597 -0.75391,8.35157 -2.57825,2.99739 -8.961052,4.4799 -14.425782,3.35156 -6.83951,-1.41218 -14.355184,-9.47659 -18.433594,-19.78125 -1.90156,-4.80452 -2.227365,-7.5053 -2.197265,-18.14453 0.03101,-10.9549 1.673448,-24.07108 2.921875,-23.73438 z m 152.865236,0.98828 c 0.0959,-0.0134 0.22018,0.0232 0.36914,0.11524 1.65208,1.02104 3.46991,17.15417 3.03906,26.96679 -0.33441,7.61636 -0.91874,10.26925 -3.4668,15.71094 -3.43311,7.33183 -7.93244,12.93324 -12.68164,15.78906 -8.88354,5.34194 -21.01367,1.99697 -21.01367,-5.79492 0,-5.43103 4.52326,-7.81704 8.83789,-4.66211 1.78233,1.30327 1.7939,1.5187 0.21289,3.93164 -0.97433,1.48701 -2.83064,2.69241 -4.44531,2.88868 l -2.77148,0.33789 3.5,2.22851 c 5.96992,3.80005 12.42609,2.45823 19.67187,-4.08789 7.08239,-6.39852 11.29621,-17.84568 11.31641,-30.74414 0.0107,-6.80341 -1.1647,-16.25583 -2.65039,-21.30859 -0.24564,-0.8354 -0.205,-1.3309 0.082,-1.3711 z m -17.21875,16.2461 0.95898,4 c 1.18938,4.96151 -0.0527,9.68455 -4.79687,18.25 -1.90394,3.4375 -3.58969,6.25 -3.7461,6.25 -1.43116,0 -1.18651,-1.79559 0.58203,-4.2793 3.55046,-4.98617 6.74521,-13.91647 6.87696,-19.2207 z m -118.982424,0.95117 c 0.485718,0.10479 0.78125,1.71029 0.78125,4.36523 0,5.74434 1.76297,11.26296 5.47461,17.14258 1.453954,2.3032 2.466964,4.7163 2.251954,5.36133 -0.51375,1.54125 -5.233112,-5.99467 -7.744142,-12.36523 -2.10273,-5.33464 -2.652592,-13.42286 -0.982422,-14.45508 0.07688,-0.0475 0.149362,-0.0638 0.21875,-0.0488 z M 194.28516,230.6661 c 0.0581,-0.009 0.10044,-4.3e-4 0.125,0.0234 1.41497,1.41496 -21.28231,21.67143 -35.19727,31.41211 -3.25368,2.27763 -6.41093,4.14063 -7.01562,4.14063 -3.60247,0 -42.30938,-32.99274 -41.06641,-35.00391 0.27537,-0.44556 2.63838,1.32448 5.25,3.9336 6.74088,6.7339 18.43452,16.6622 27.625,23.45312 7.01152,5.18086 8.11973,5.68991 10.08398,4.63867 5.10117,-2.73006 20.35988,-14.9897 29.63477,-23.80859 5.14101,-4.88825 9.68853,-8.6603 10.56055,-8.78906 z" />
      </g>
      <ellipse
         style="font-variation-settings:normal;opacity:1;vector-effect:none;fill:#000000;fill-opacity:1;fill-rule:evenodd;stroke-width:0.999999;stroke-linecap:butt;stroke-linejoin:miter;stroke-miterlimit:4;stroke-dasharray:none;stroke-dashoffset:0;stroke-opacity:1;stop-color:#000000;stop-opacity:1"
         id="path1983"
         cx="91.49791"
         cy="60.540695"
         rx="2.4280174"
         ry="1.8849081" />
    </g>
    <ellipse
       style="font-variation-settings:normal;opacity:1;vector-effect:none;fill:#000000;fill-opacity:1;fill-rule:evenodd;stroke-width:0.930901;stroke-linecap:butt;stroke-linejoin:miter;stroke-miterlimit:4;stroke-dasharray:none;stroke-dashoffset:0;stroke-opacity:1;stop-color:#000000;stop-opacity:1"
       id="path1995"
       cx="245.8598"
       cy="53.209278"
       rx="2.5914145"
       ry="2.2270391" />
    <ellipse
       style="font-variation-settings:normal;opacity:1;vector-effect:none;fill:#000000;fill-opacity:1;fill-rule:evenodd;stroke-width:0.930901;stroke-linecap:butt;stroke-linejoin:miter;stroke-miterlimit:4;stroke-dasharray:none;stroke-dashoffset:0;stroke-opacity:1;stop-color:#000000;stop-opacity:1"
       id="path1997"
       cx="59.992832"
       cy="110.90444"
       rx="6.3444972"
       ry="6.9780555" />
    <ellipse
       style="font-variation-settings:normal;opacity:1;vector-effect:none;fill:#000000;fill-opacity:1;fill-rule:evenodd;stroke-width:0.930901;stroke-linecap:butt;stroke-linejoin:miter;stroke-miterlimit:4;stroke-dasharray:none;stroke-dashoffset:0;stroke-opacity:1;stop-color:#000000;stop-opacity:1"
       id="path1999"
       cx="67.230927"
       cy="97.601585"
       rx="4.4083834"
       ry="4.1274452" />
    <ellipse
       style="font-variation-settings:normal;opacity:1;vector-effect:none;fill:#000000;fill-opacity:1;fill-rule:evenodd;stroke-width:0.930901;stroke-linecap:butt;stroke-linejoin:miter;stroke-miterlimit:4;stroke-dasharray:none;stroke-dashoffset:0;stroke-opacity:1;stop-color:#000000;stop-opacity:1"
       id="path2001"
       cx="219.82651"
       cy="97.720367"
       rx="3.9913738"
       ry="3.23663" />
    <ellipse
       style="font-variation-settings:normal;opacity:1;vector-effect:none;fill:#000000;fill-opacity:1;fill-rule:evenodd;stroke-width:0.930901;stroke-linecap:butt;stroke-linejoin:miter;stroke-miterlimit:4;stroke-dasharray:none;stroke-dashoffset:0;stroke-opacity:1;stop-color:#000000;stop-opacity:1"
       id="path2003"
       cx="227.31778"
       cy="110.62234"
       rx="5.8828082"
       ry="6.6959634" />
  </g>
</svg>
